<svg xmlns="http://www.w3.org/2000/svg" width="100.376" height="103.715" viewBox="0 0 100.376 103.715">
  <g id="Group_19002" data-name="Group 19002" transform="translate(0 0)">
    <path id="Path_2" data-name="Path 2" d="M83.188,98.87A46.6,46.6,0,0,1,5.124,77.89H0a50.877,50.877,0,0,0,2.665,8.158A51.564,51.564,0,0,0,89.907,98.87Z" transform="translate(0 -13.832)" fill="#f9bc15"/>
    <path id="Path_3" data-name="Path 3" d="M76.922,55.51l-.058.14L71.79,67.92h2.92l1.217-3.051H80.31l1.217,3.051h2.9L79.3,55.51H76.914Zm1.2,3.726c.362,1,.683,1.875.97,2.6h0l.3.757H76.848l.3-.757h0c.288-.716.617-1.587.979-2.6Z" transform="translate(-12.748 -9.857)" fill="#ea4435"/>
    <path id="Path_4" data-name="Path 4" d="M97.55,69.89Z" transform="translate(-17.323 -12.411)" fill="#db4735"/>
    <path id="Path_5" data-name="Path 5" d="M98.726,58.07l-.181.132.181-.132a5.318,5.318,0,0,0-1.332-1.275,6.489,6.489,0,0,0-1.818-.847h0a5.98,5.98,0,0,0-.757-.189c-.271-.049-.551-.1-.839-.132s-.592-.066-.9-.082-.609-.025-.9-.025H88.66V67.93h3.191a16.134,16.134,0,0,0,2.295-.148,9.306,9.306,0,0,0,1.842-.444,6.206,6.206,0,0,0,1.7-.9,5.215,5.215,0,0,0,1.2-1.283,5.417,5.417,0,0,0,.707-1.6,7.212,7.212,0,0,0,.23-1.867,6.824,6.824,0,0,0-.271-1.957,5.4,5.4,0,0,0-.814-1.645Zm-2.188,5.782a3.1,3.1,0,0,1-1.406,1.283,7.256,7.256,0,0,1-3.035.5h-.716V57.79h.781a10.566,10.566,0,0,1,1.431.09,5.467,5.467,0,0,1,1.135.271,4.122,4.122,0,0,1,.962.518,3.06,3.06,0,0,1,.715.74,3.3,3.3,0,0,1,.452.987,4.543,4.543,0,0,1,.156,1.258,4.366,4.366,0,0,1-.485,2.2h0Z" transform="translate(-15.744 -9.859)" fill="#ea4435"/>
    <path id="Path_6" data-name="Path 6" d="M109.905,59.3a4.337,4.337,0,0,0-.609-.041,3.515,3.515,0,0,0-1.752.411,3.158,3.158,0,0,0-.864.707l-.156-.9H104.28v9.112h2.656V62.632a2.286,2.286,0,0,1,1.044-.757,4.825,4.825,0,0,1,1.7-.28h.411V59.318l-.189-.025Z" transform="translate(-18.518 -10.523)" fill="#ea4435"/>
    <path id="Path_7" data-name="Path 7" d="M108.01,92.86Z" transform="translate(-19.18 -16.49)" fill="#33a852"/>
    <path id="Path_8" data-name="Path 8" d="M96.52,92.86Z" transform="translate(-17.14 -16.49)" fill="#33a852"/>
    <g id="Group_2" data-name="Group 2" transform="translate(38.012 67.331)">
      <path id="Path_9" data-name="Path 9" d="M54.378,83.385a3.9,3.9,0,0,0-1.941-1.209h0a7.338,7.338,0,0,0-1.151-.222,13.069,13.069,0,0,0-1.48-.074H46.22V93.567h2.665V89.241a2,2,0,0,1,.222.008c.189,0,.37.008.567.008a9.406,9.406,0,0,0,2.253-.247,5.355,5.355,0,0,0,1.7-.732,3.436,3.436,0,0,0,1.094-1.193A3.3,3.3,0,0,0,55.1,85.5a3.818,3.818,0,0,0-.173-1.168,2.962,2.962,0,0,0-.526-.962Zm-5.51.773h.9c.419,0,.773.016,1.053.041a3.589,3.589,0,0,1,.683.132,1.661,1.661,0,0,1,.419.206.819.819,0,0,1,.239.239,1.288,1.288,0,0,1,.189.691,1.383,1.383,0,0,1-.132.617,1.1,1.1,0,0,1-.4.452,2.488,2.488,0,0,1-.831.329,6.155,6.155,0,0,1-1.357.123c-.2,0-.387,0-.567-.008a1.394,1.394,0,0,1-.189-.008V84.158Z" transform="translate(-46.22 -81.872)" fill="#33a852"/>
      <path id="Path_10" data-name="Path 10" d="M61.675,81.88H59.01V93.575h8.019V91.3H61.675Z" transform="translate(-48.491 -81.872)" fill="#33a852"/>
      <path id="Path_11" data-name="Path 11" d="M73.135,88.739h4.573V86.461H73.135v-2.3h5.321V81.88H70.47V93.575h8.3V91.3H73.135Z" transform="translate(-50.526 -81.872)" fill="#33a852"/>
      <path id="Path_12" data-name="Path 12" d="M92.534,81.878H89.417L87.7,84.288c-.362.51-.674.962-.946,1.357-.23-.337-.543-.79-.954-1.365h0L84.08,81.87H80.963l4.194,5.757L80.79,93.565h3.084l1.875-2.607c.345-.485.674-.954,1-1.423.313.452.65.921,1,1.423l1.875,2.607h3.084l-4.367-5.938,4.194-5.757Z" transform="translate(-52.359 -81.87)" fill="#33a852"/>
      <path id="Path_13" data-name="Path 13" d="M103.6,88.418a4.459,4.459,0,0,1-.263,1.7,1.8,1.8,0,0,1-.822.913,3.266,3.266,0,0,1-2.681,0,1.8,1.8,0,0,1-.822-.913,4.158,4.158,0,0,1-.263-1.7V81.88H96.08v6.711a8.78,8.78,0,0,0,.082,1.283,4.41,4.41,0,0,0,.288,1.077,4.257,4.257,0,0,0,.658,1.1,3.7,3.7,0,0,0,1.012.831,4.945,4.945,0,0,0,1.349.51,7.589,7.589,0,0,0,1.686.173,7.718,7.718,0,0,0,1.694-.173,5.167,5.167,0,0,0,1.365-.51,3.653,3.653,0,0,0,1.028-.831,3.945,3.945,0,0,0,.666-1.1,4.814,4.814,0,0,0,.288-1.077,8.78,8.78,0,0,0,.082-1.283V81.88h-2.665v6.538Z" transform="translate(-55.074 -81.872)" fill="#33a852"/>
      <path id="Path_14" data-name="Path 14" d="M118.862,88.416a2.816,2.816,0,0,0-.888-.979,4.45,4.45,0,0,0-1.234-.559c-.444-.132-.9-.239-1.39-.337h0c-.3-.058-.576-.123-.839-.189a2.978,2.978,0,0,1-.65-.247,1.109,1.109,0,0,1-.395-.354.906.906,0,0,1-.132-.518,1.1,1.1,0,0,1,.107-.493.891.891,0,0,1,.321-.337,2.609,2.609,0,0,1,1.415-.313,8.515,8.515,0,0,1,1.456.14,9.811,9.811,0,0,1,1.628.461l.378.14v-2.27l-.173-.066a8.318,8.318,0,0,0-1.62-.452,10.219,10.219,0,0,0-1.859-.173,6.427,6.427,0,0,0-1.7.214,4.059,4.059,0,0,0-1.349.666,3.22,3.22,0,0,0-.921,1.143,3.565,3.565,0,0,0-.337,1.6,2.984,2.984,0,0,0,.3,1.406,2.693,2.693,0,0,0,.806.938,3.849,3.849,0,0,0,1.135.559,12.184,12.184,0,0,0,1.283.329h0q.493.1.938.2a4.086,4.086,0,0,1,.757.247,1.17,1.17,0,0,1,.469.337.574.574,0,0,1,.107.2.97.97,0,0,1,.041.288,1.064,1.064,0,0,1-.173.625,1.245,1.245,0,0,1-.5.411,2.88,2.88,0,0,1-.765.239,5.546,5.546,0,0,1-.913.074,7.849,7.849,0,0,1-3.15-.633l-.387-.164v2.237l.148.074a5.653,5.653,0,0,0,1.554.51,10.025,10.025,0,0,0,1.859.181,8.985,8.985,0,0,0,2-.206,4.589,4.589,0,0,0,1.6-.658,3.121,3.121,0,0,0,1.044-1.151,3.446,3.446,0,0,0,.37-1.628,3.166,3.166,0,0,0-.329-1.513Z" transform="translate(-57.658 -81.87)" fill="#33a852"/>
    </g>
    <rect id="Rectangle_13" data-name="Rectangle 13" width="12.41" height="20.955" transform="translate(22.674 24.689)" fill="#ea4435"/>
    <rect id="Rectangle_14" data-name="Rectangle 14" width="12.41" height="20.955" transform="translate(22.674 58.079)" fill="#33a852"/>
    <rect id="Rectangle_15" data-name="Rectangle 15" width="20.955" height="12.41" transform="translate(35.101 45.653)" fill="#f9bc15"/>
    <rect id="Rectangle_16" data-name="Rectangle 16" width="20.955" height="12.41" transform="translate(1.711 45.653)" fill="#7f3f98"/>
    <rect id="Rectangle_17" data-name="Rectangle 17" width="12.41" height="12.443" transform="translate(22.674 45.636)" fill="#005baa"/>
    <path id="Path_15" data-name="Path 15" d="M7.246,33.44a46.6,46.6,0,0,1,81.592-7.92,46.37,46.37,0,0,1,6.415,14.113h5.124A50.6,50.6,0,0,0,97.712,31.5,51.575,51.575,0,0,0,7.426,22.74,51.151,51.151,0,0,0,0,39.632H5.132a45.49,45.49,0,0,1,2.114-6.2Z" transform="translate(0 0)" fill="#f9bc15"/>
    <g id="Group_3" data-name="Group 3" transform="translate(24.417 46.648)">
      <path id="Path_16" data-name="Path 16" d="M35.16,63.136a2.664,2.664,0,0,0-.28-.173s.173-.1.222-.132c.123-.066.419-.28.428-.493.025-.428-.666-.576-1.357-.625a3.4,3.4,0,0,1-1.291-.288.707.707,0,0,1-.452-.641c.058-.477.666-.576,1.061-.584.411-.016.715.206.674.4s-.28.173-.419.148c-.082-.016-.23-.132-.329-.164-.189-.058-.666-.049-.641.288.016.206.288.337.419.395a4.336,4.336,0,0,0,1.143.173c.658.049,1.423.189,1.6.658a.634.634,0,0,1-.181.65,2.3,2.3,0,0,1-.609.4Z" transform="translate(-30.176 -57.338)" fill="#fff" fill-rule="evenodd"/>
      <path id="Path_17" data-name="Path 17" d="M33.768,62.14c.288.033.337.049.567.082-.181.107-.485.2-.411.535.041.189.321.378.584.485.419.173.946.313,1.118.715.2.452-.173.839-.444,1.061-.058-.049-.123-.09-.189-.14.23-.173.551-.633.28-.921-.239-.255-.674-.313-1.053-.51-.617-.321-.74-.609-.74-.831A.638.638,0,0,1,33.768,62.14Z" transform="translate(-30.363 -57.682)" fill="#fff" fill-rule="evenodd"/>
      <path id="Path_18" data-name="Path 18" d="M35.237,62.3v1c-.115-.041-.156-.058-.28-.1,0-.321-.016-.6-.008-.921a1.533,1.533,0,0,1,.3.025Z" transform="translate(-30.623 -57.707)" fill="#fff" fill-rule="evenodd"/>
      <path id="Path_19" data-name="Path 19" d="M34.441,63.92a3.1,3.1,0,0,1,.3.132c-.107.082-.132.107-.181.148a.461.461,0,0,0-.189.395c.033.271.337.493.592.658.288.189.617.337.592.724-.016.271-.206.4-.37.551a1.307,1.307,0,0,0-.107-.107,1.623,1.623,0,0,0,.222-.354c.058-.222-.14-.362-.288-.485-.123-.1-.271-.164-.395-.255a1.18,1.18,0,0,1-.543-.757.714.714,0,0,1,.354-.65Z" transform="translate(-30.469 -57.999)" fill="#fff" fill-rule="evenodd"/>
      <path id="Path_20" data-name="Path 20" d="M34.96,64.09a1.946,1.946,0,0,1,.263.115c0,.329-.016.707,0,1-.09-.058-.148-.1-.247-.173,0-.337-.016-.6,0-.938Z" transform="translate(-30.626 -58.029)" fill="#fff" fill-rule="evenodd"/>
      <path id="Path_21" data-name="Path 21" d="M34.632,65.74a.7.7,0,0,0-.255.641c.09.378.485.485.691.748.181.23.107.535.115.9a1.045,1.045,0,0,0,.148-.888.844.844,0,0,0-.362-.395c-.271-.164-.436-.387-.321-.633a.564.564,0,0,1,.2-.239l-.206-.14Z" transform="translate(-30.52 -58.322)" fill="#fff" fill-rule="evenodd"/>
      <path id="Path_22" data-name="Path 22" d="M34.98,65.92a.992.992,0,0,1,.23.173c-.008.206-.008.461,0,.65A1.406,1.406,0,0,1,35,66.57c0-.222-.008-.428-.008-.65Z" transform="translate(-30.629 -58.354)" fill="#fff" fill-rule="evenodd"/>
      <path id="Path_23" data-name="Path 23" d="M35,67.4c.271.132.173.592.189.979A1.468,1.468,0,0,1,35,67.4Z" transform="translate(-30.632 -58.617)" fill="#fff" fill-rule="evenodd"/>
      <path id="Path_24" data-name="Path 24" d="M35.02,68.89c.058.041.107.09.164.14a.438.438,0,0,1-.09.28.714.714,0,0,1-.074-.419Z" transform="translate(-30.636 -58.881)" fill="#fff" fill-rule="evenodd"/>
      <path id="Path_25" data-name="Path 25" d="M35.195,68.663h0a1.107,1.107,0,0,1-.526-1.012.777.777,0,0,1,.156-.362l.1.066a.582.582,0,0,0-.1.345A1.542,1.542,0,0,0,35.195,68.663Z" transform="translate(-30.573 -58.597)" fill="#fff" fill-rule="evenodd"/>
      <path id="Path_26" data-name="Path 26" d="M33.86,58.486v.88a1.45,1.45,0,0,1-.584.123A.383.383,0,0,1,33,59.3c-.164.115-.576.255-.658-.033-.23.107-.609.123-.65-.164-.206.082-.592.115-.551-.214-.164.033-.485.123-.633,0-.025-.025-.033-.041-.025-.107a.829.829,0,0,1-.526-.181c-.1-.074-.28-.255-.271-.395.164.041.3.082.387.1a3.48,3.48,0,0,0,2.105-.535,1.718,1.718,0,0,1,.567-.23.47.47,0,0,1,.329.14,1.153,1.153,0,0,1,.23.345c.107.23.164.559.535.469Z" transform="translate(-29.69 -56.865)" fill="#fff" fill-rule="evenodd"/>
      <path id="Path_27" data-name="Path 27" d="M36.126,60.753c.082-.016.23-.132.329-.164.189-.058.666-.049.641.288-.016.206-.288.337-.419.395a3.227,3.227,0,0,1-.987.156,2.469,2.469,0,0,1,.551.23,2.849,2.849,0,0,0,.74-.222.707.707,0,0,0,.452-.641c-.058-.477-.666-.576-1.061-.584-.411-.016-.716.206-.674.4s.28.173.419.148Z" transform="translate(-30.755 -57.34)" fill="#fff" fill-rule="evenodd"/>
      <path id="Path_28" data-name="Path 28" d="M35.47,58.486v.88a1.45,1.45,0,0,0,.584.123.383.383,0,0,0,.271-.189c.164.115.576.255.658-.033.23.107.609.123.65-.164.206.082.592.115.551-.214.164.033.485.123.633,0,.025-.025.033-.041.025-.107a.829.829,0,0,0,.526-.181c.1-.074.28-.255.271-.395-.164.041-.3.082-.387.1a3.48,3.48,0,0,1-2.105-.535,1.718,1.718,0,0,0-.567-.23.47.47,0,0,0-.329.14,1.153,1.153,0,0,0-.23.345c-.107.23-.164.559-.535.469Z" transform="translate(-30.716 -56.865)" fill="#fff" fill-rule="evenodd"/>
      <path id="Path_29" data-name="Path 29" d="M35.442,57.131a.411.411,0,1,0-.674.313,1.651,1.651,0,0,1,.074.535c0,.929.025,1.85.033,2.73.107,0,.214.025.321.033.008-.9.016-1.834.033-2.747a1.283,1.283,0,0,1,.082-.551h0a.4.4,0,0,0,.14-.313Z" transform="translate(-30.565 -56.72)" fill="#fff" fill-rule="evenodd"/>
    </g>
  </g>
</svg>
