<svg xmlns="http://www.w3.org/2000/svg" width="18" height="18" viewBox="0 0 18 18">
  <path id="offline_pin_FILL1_wght600_GRAD0_opsz48" d="M10.748,13.3a.814.814,0,0,0,1.194,0L15.785,9.46a.907.907,0,0,0,.261-.532.537.537,0,0,0-.261-.532.9.9,0,0,0-.554-.206.623.623,0,0,0-.51.206L11.334,11.74l-1.5-1.5a.723.723,0,0,0-.532-.217.628.628,0,0,0-.51.239.668.668,0,0,0-.261.532.731.731,0,0,0,.261.554ZM9.466,16.669h5.667a.652.652,0,0,0,.489-.217.7.7,0,0,0-.51-1.216H9.445a.652.652,0,0,0-.489.217.7.7,0,0,0,.51,1.216Zm2.823,4.581a9.127,9.127,0,0,1-3.55-.684,8.706,8.706,0,0,1-4.755-4.755,9.127,9.127,0,0,1-.684-3.55,9.151,9.151,0,0,1,.684-3.539,8.615,8.615,0,0,1,1.9-2.855A9.153,9.153,0,0,1,8.739,3.956a8.882,8.882,0,0,1,3.55-.706,9.022,9.022,0,0,1,6.394,2.616,9.021,9.021,0,0,1,1.911,2.844,8.883,8.883,0,0,1,.706,3.55,8.882,8.882,0,0,1-.706,3.55,9.152,9.152,0,0,1-1.911,2.855,8.615,8.615,0,0,1-2.855,1.9A9.151,9.151,0,0,1,12.289,21.25Z" transform="translate(-3.3 -3.25)" fill="#28c397"/>
</svg>
